<?xml version="1.0" encoding="UTF-8" standalone="no" ?>
<!DOCTYPE svg PUBLIC "-//W3C//DTD SVG 1.1//EN" "http://www.w3.org/Graphics/SVG/1.1/DTD/svg11.dtd">
<svg xmlns="http://www.w3.org/2000/svg" xmlns:xlink="http://www.w3.org/1999/xlink" version="1.1" width="1280" height="1024" viewBox="0 0 1280 1024" xml:space="preserve">
<desc>Created with Fabric.js 5.3.0</desc>
<defs>
</defs>
<g transform="matrix(1 0 0 1 640 512)" id="background-logo"  >
<rect style="stroke: none; stroke-width: 0; stroke-dasharray: none; stroke-linecap: butt; stroke-dashoffset: 0; stroke-linejoin: miter; stroke-miterlimit: 4; fill: rgb(255,255,255); fill-opacity: 0; fill-rule: nonzero; opacity: 1;"  paint-order="stroke"  x="-640" y="-512" rx="0" ry="0" width="1280" height="1024" />
</g>
<g transform="matrix(1.9211538461538462 0 0 1.9211538461538462 640 406.9676875857557)" id="logo-logo"  >
<g style=""  paint-order="stroke"   >
		<g transform="matrix(2.7558040955303547 0 0 -2.7558040955303547 0 0)"  >
<path style="stroke: none; stroke-width: 1; stroke-dasharray: none; stroke-linecap: butt; stroke-dashoffset: 0; stroke-linejoin: miter; stroke-miterlimit: 4; fill: rgb(20,132,56); fill-rule: nonzero; opacity: 1;"  paint-order="stroke"  transform=" translate(-71.634, -72.93799999999999)" d="M 73.942 111.317 C 89.06899999999999 110.83399999999999 102.351 101.624 108.139 87.725 L 108.139 87.725 L 92.814 87.725 C 92.478 88.18299999999999 92.12299999999999 88.63199999999999 91.75599999999999 89.065 L 91.75599999999999 89.065 C 91.12099999999998 89.816 90.44099999999999 90.53099999999999 89.73399999999998 91.19 L 89.73399999999998 91.19 C 85.44699999999997 95.196 79.86599999999999 97.571 74.01999999999998 97.877 L 74.01999999999998 97.877 C 73.56899999999999 97.89999999999999 73.11999999999998 97.913 72.68799999999999 97.913 L 72.68799999999999 97.913 C 69.48799999999999 97.913 66.374 97.316 63.43699999999999 96.14099999999999 L 63.43699999999999 96.14099999999999 C 63.36099999999999 96.11099999999999 63.28399999999999 96.079 63.20799999999999 96.04899999999999 L 63.20799999999999 96.04899999999999 L 61.86299999999999 99.014 C 62.57999999999999 99.312 63.31399999999999 99.582 64.05399999999999 99.822 L 64.05399999999999 99.822 C 66.835 100.714 69.73899999999999 101.166 72.68799999999999 101.166 L 72.68799999999999 101.166 C 73.08699999999999 101.166 73.50599999999999 101.15599999999999 73.93099999999998 101.13799999999999 L 73.93099999999998 101.13799999999999 C 81.68899999999998 100.80199999999999 89.04699999999998 97.21999999999998 94.11799999999998 91.30999999999999 L 94.11799999999998 91.30999999999999 L 95.50999999999998 92.50499999999998 C 90.10999999999997 98.79799999999999 82.27399999999997 102.61399999999998 74.01099999999998 102.97099999999998 L 74.01099999999998 102.97099999999998 C 73.55899999999998 102.99099999999997 73.11299999999999 103.00099999999998 72.68799999999999 103.00099999999998 L 72.68799999999999 103.00099999999998 C 69.54899999999999 103.00099999999998 66.45599999999999 102.51899999999998 63.490999999999985 101.56799999999997 L 63.490999999999985 101.56799999999997 C 62.39299999999999 101.21199999999997 61.30599999999998 100.79299999999996 60.26399999999999 100.31899999999997 L 60.26399999999999 100.31899999999997 L 59.42899999999999 99.94099999999997 L 62.28899999999999 93.63199999999998 L 63.12599999999999 94.01499999999997 C 63.44899999999999 94.16299999999997 63.779999999999994 94.30399999999997 64.11399999999999 94.43599999999998 L 64.11399999999999 94.43599999999998 C 66.838 95.52599999999998 69.722 96.07899999999998 72.68799999999999 96.07899999999998 L 72.68799999999999 96.07899999999998 C 73.088 96.07899999999998 73.50399999999999 96.06699999999998 73.92299999999999 96.04399999999998 L 73.92299999999999 96.04399999999998 C 79.33999999999999 95.76099999999998 84.50999999999999 93.56099999999998 88.48299999999999 89.84899999999999 L 88.48299999999999 89.84899999999999 C 89.13699999999999 89.23899999999999 89.767 88.57699999999998 90.35499999999999 87.88099999999999 L 90.35499999999999 87.88099999999999 C 90.79199999999999 87.36499999999998 91.21 86.82599999999998 91.59599999999999 86.27899999999998 L 91.59599999999999 86.27899999999998 L 91.86999999999999 85.89099999999998 L 110.815 85.89099999999998 L 110.348 87.13199999999998 C 107.57 94.49899999999998 102.721 100.85099999999997 96.326 105.50199999999998 L 96.326 105.50199999999998 C 89.79799999999999 110.24799999999998 82.07799999999999 112.89299999999999 74.00099999999999 113.15099999999998 L 74.00099999999999 113.15099999999998 z M 56.058 109.586 C 48.8 106.288 42.73 100.958 38.507 94.172 L 38.507 94.172 C 34.546 87.814 32.453 80.472 32.453 72.94 L 32.453 72.94 C 32.453 65.40899999999999 34.54600000000001 58.065999999999995 38.507000000000005 51.706999999999994 L 38.507000000000005 51.706999999999994 C 42.728 44.92 48.798 39.589 56.058 36.291 L 56.058 36.291 C 58.47 35.19499999999999 60.997 34.337999999999994 63.566 33.741 L 63.566 33.741 L 63.981 35.528 C 61.529 36.097 59.118 36.915 56.817 37.961 L 56.817 37.961 C 49.888 41.109 44.095 46.197 40.064 52.676 L 40.064 52.676 C 36.284 58.745000000000005 34.287 65.75200000000001 34.287 72.94 L 34.287 72.94 C 34.287 80.12899999999999 36.284 87.13499999999999 40.064 93.202 L 40.064 93.202 C 44.096000000000004 99.67999999999999 49.89 104.768 56.818 107.91499999999999 L 56.818 107.91499999999999 C 59.117999999999995 108.96199999999999 61.528999999999996 109.78099999999999 63.98 110.34799999999998 L 63.98 110.34799999999998 L 63.567 112.13499999999999 C 60.996 111.541 58.469 110.68299999999999 56.058 109.58599999999998 M 58.163 104.95199999999998 C 53.564 102.866 49.379 99.73 46.062 95.883 L 46.062 95.883 L 47.451 94.685 C 50.595 98.331 54.562 101.304 58.922 103.281 L 58.922 103.281 C 63.254 105.25200000000001 67.88499999999999 106.25200000000001 72.688 106.25200000000001 L 72.688 106.25200000000001 C 83.85300000000001 106.25200000000001 94.221 100.70000000000002 100.423 91.4 L 100.423 91.4 L 101.949 92.417 C 95.40599999999999 102.229 84.46799999999999 108.087 72.688 108.087 L 72.688 108.087 C 67.622 108.087 62.734 107.032 58.163000000000004 104.952 M 60.74700000000001 88.844 C 57.397000000000006 86.324 54.88100000000001 82.73899999999999 53.665000000000006 78.749 L 53.665000000000006 78.749 L 55.419000000000004 78.214 C 57.75000000000001 85.857 64.69 90.993 72.68900000000001 90.993 L 72.68900000000001 90.993 C 76.42500000000001 90.993 80.00800000000001 89.862 83.05000000000001 87.723 L 83.05000000000001 87.723 L 84.10600000000001 89.223 C 80.75300000000001 91.581 76.805 92.827 72.68900000000001 92.827 L 72.68900000000001 92.827 C 68.34200000000001 92.827 64.212 91.45 60.74700000000001 88.844 M 42.828 91.48899999999999 C 40.486000000000004 87.72599999999998 38.898 83.609 38.106 79.25399999999999 L 38.106 79.25399999999999 L 39.911 78.92599999999999 C 40.606 82.75199999999998 41.952 86.38399999999999 43.912 89.73399999999998 L 43.912 89.73399999999998 L 46.677 88.01699999999998 C 44.025 83.451 42.628 78.258 42.628 72.94 L 42.628 72.94 C 42.628 67.622 44.025 62.429 46.677 57.863 L 46.677 57.863 L 43.912 56.146 C 41.952 59.496 40.606 63.128 39.911 66.955 L 39.911 66.955 L 38.106 66.626 C 38.898 62.271 40.486000000000004 58.154 42.828 54.391000000000005 L 42.828 54.391000000000005 L 43.313 53.61300000000001 L 49.192 57.266000000000005 L 48.707 58.04600000000001 C 45.931 62.507000000000005 44.463 67.65700000000001 44.463 72.94000000000001 L 44.463 72.94000000000001 C 44.463 78.22300000000001 45.931 83.37300000000002 48.707 87.83500000000001 L 48.707 87.83500000000001 L 49.192 88.614 L 43.313 92.266 z M 53.771 89.243 C 52.928 88.267 52.154 87.21499999999999 51.473 86.119 L 51.473 86.119 C 49.014 82.171 47.714 77.614 47.714 72.94 L 47.714 72.94 C 47.714 68.26599999999999 49.013999999999996 63.708 51.473 59.760999999999996 L 51.473 59.760999999999996 C 52.153999999999996 58.66499999999999 52.928 57.61299999999999 53.771 56.638 L 53.771 56.638 C 54.548 55.735 55.399 54.881 56.297 54.099 L 56.297 54.099 L 57.501 55.482 C 56.669 56.208 55.881 56.999 55.159 57.836 L 55.159 57.836 C 54.378 58.74 53.662 59.714 53.03 60.73 L 53.03 60.73 C 50.753 64.387 49.549 68.61 49.549 72.94 L 49.549 72.94 C 49.549 77.27 50.753 81.493 53.031 85.15 L 53.031 85.15 C 53.662 86.16600000000001 54.378 87.13900000000001 55.16 88.04400000000001 L 55.16 88.04400000000001 C 55.88099999999999 88.88000000000001 56.669 89.67200000000001 57.501 90.39800000000001 L 57.501 90.39800000000001 L 56.297 91.781 C 55.399 90.999 54.548 90.145 53.771 89.243 M 53.665 67.129 C 54.881 63.139 57.397 59.55500000000001 60.747 57.035000000000004 L 60.747 57.035000000000004 C 64.212 54.43000000000001 68.342 53.053000000000004 72.689 53.053000000000004 L 72.689 53.053000000000004 C 76.80099999999999 53.053000000000004 80.74799999999999 54.298 84.101 56.652 L 84.101 56.652 L 83.047 58.154 C 80.004 56.017 76.423 54.887 72.689 54.887 L 72.689 54.887 C 64.69 54.887 57.748999999999995 60.022 55.419 67.665 L 55.419 67.665 z M 91.869 59.98800000000001 L 91.596 59.599000000000004 C 91.202 59.042 90.785 58.503 90.352 57.99400000000001 L 90.352 57.99400000000001 C 89.772 57.30700000000001 89.14200000000001 56.64600000000001 88.482 56.029 L 88.482 56.029 C 84.509 52.317 79.34 50.117 73.923 49.833 L 73.923 49.833 C 73.5 49.811 73.085 49.8 72.688 49.8 L 72.688 49.8 C 69.723 49.8 66.839 50.352 64.11 51.443999999999996 L 64.11 51.443999999999996 C 63.793 51.568999999999996 63.463 51.709999999999994 63.128 51.86299999999999 L 63.128 51.86299999999999 L 62.292 52.245999999999995 L 59.429 45.93599999999999 L 60.264 45.55599999999999 C 61.312000000000005 45.08099999999999 62.399 44.66199999999999 63.493 44.30999999999999 L 63.493 44.30999999999999 C 66.456 43.35899999999999 69.549 42.877999999999986 72.688 42.877999999999986 L 72.688 42.877999999999986 C 73.11500000000001 42.877999999999986 73.561 42.887999999999984 74.012 42.90799999999999 L 74.012 42.90799999999999 C 82.274 43.264999999999986 90.11 47.078999999999986 95.508 53.37099999999999 L 95.508 53.37099999999999 L 94.115 54.56499999999999 C 89.046 48.657 81.689 45.076 73.931 44.74 L 73.931 44.74 C 73.508 44.722 73.089 44.712 72.688 44.712 L 72.688 44.712 C 69.74000000000001 44.712 66.83500000000001 45.165000000000006 64.054 46.057 L 64.054 46.057 C 63.317 46.293 62.582 46.563 61.863 46.862 L 61.863 46.862 L 63.209 49.829 C 63.284000000000006 49.798 63.359 49.768 63.433 49.739 L 63.433 49.739 C 66.375 48.562 69.488 47.964999999999996 72.688 47.964999999999996 L 72.688 47.964999999999996 C 73.116 47.964999999999996 73.56400000000001 47.977 74.02 48.001 L 74.02 48.001 C 79.866 48.306999999999995 85.447 50.681999999999995 89.734 54.689 L 89.734 54.689 C 90.448 55.355 91.127 56.069 91.75099999999999 56.808 L 91.75099999999999 56.808 C 92.11699999999999 57.237 92.47299999999998 57.688 92.814 58.153999999999996 L 92.814 58.153999999999996 L 108.139 58.153999999999996 C 102.351 44.254 89.07 35.042 73.942 34.559 L 73.942 34.559 L 74.00099999999999 32.724999999999994 C 82.07799999999999 32.983 89.79799999999999 35.62799999999999 96.326 40.37499999999999 L 96.326 40.37499999999999 C 102.72099999999999 45.02499999999999 107.571 51.37799999999999 110.348 58.74699999999999 L 110.348 58.74699999999999 L 110.815 59.98799999999999 z M 72.688 39.625 C 67.89 39.625 63.257000000000005 40.625 58.92100000000001 42.597 L 58.92100000000001 42.597 L 58.790000000000006 42.656 C 54.483000000000004 44.635 50.565000000000005 47.585 47.45100000000001 51.195 L 47.45100000000001 51.195 L 46.062000000000005 49.997 C 49.37800000000001 46.15 53.563 43.014 58.161 40.927 L 58.161 40.927 L 58.343 40.845 L 58.344 40.845 C 62.869 38.818 67.693 37.791 72.688 37.791 L 72.688 37.791 C 78.93900000000001 37.791 85.078 39.452999999999996 90.441 42.598 L 90.441 42.598 C 95.646 45.65 100.006 50.016999999999996 103.05 55.225 L 103.05 55.225 L 101.466 56.15 C 95.51 45.958 84.482 39.625 72.688 39.625" stroke-linecap="round" />
</g>
</g>
</g>
<g transform="matrix(1.9211538461538462 0 0 1.9211538461538462 638.6038014423076 711.292783877785)" id="text-logo"  >
<g style=""  paint-order="stroke"   >
		<g transform="matrix(1 0 0 1 0 0)" id="text-logo-path-0"  >
<path style="stroke: none; stroke-width: 0; stroke-dasharray: none; stroke-linecap: butt; stroke-dashoffset: 0; stroke-linejoin: miter; stroke-miterlimit: 4; fill: rgb(35,71,217); fill-rule: nonzero; opacity: 1;"  paint-order="stroke"  transform=" translate(-104.22500000000001, 20.119999999999997)" d="M 21.95 -40.58 Q 29.3 -40.58 34.09 -36.96 Q 38.87 -33.34 40.7 -27.07 L 40.7 -27.07 L 35.23 -27.07 Q 33.69 -31.07 30.27 -33.43 Q 26.85 -35.8 21.89 -35.8 L 21.89 -35.8 Q 17.96 -35.8 14.85 -33.89 Q 11.74 -31.98 9.95 -28.41 Q 8.15 -24.85 8.15 -20.06 L 8.15 -20.06 Q 8.15 -15.33 9.95 -11.8 Q 11.74 -8.27 14.85 -6.36 Q 17.96 -4.45 21.89 -4.45 L 21.89 -4.45 Q 26.85 -4.45 30.27 -6.81 Q 33.69 -9.18 35.23 -13.17 L 35.23 -13.17 L 40.7 -13.17 Q 38.87 -6.9 34.09 -3.28 Q 29.3 0.34 21.95 0.34 L 21.95 0.34 Q 16.3 0.34 11.97 -2.25 Q 7.64 -4.84 5.22 -9.49 Q 2.79 -14.14 2.79 -20.06 L 2.79 -20.06 Q 2.79 -26.05 5.22 -30.72 Q 7.64 -35.4 11.97 -37.99 Q 16.3 -40.58 21.95 -40.58 L 21.95 -40.58 Z M 80.83 0 L 77.46 -9.29 L 59.79 -9.29 L 56.43 0 L 50.84 0 L 65.72 -39.44 L 71.59 -39.44 L 86.41 0 L 80.83 0 Z M 61.27 -13.34 L 75.98 -13.34 L 68.63 -33.63 L 61.27 -13.34 Z M 121.75 -36.08 L 101.86 -4.28 L 122.09 -4.28 L 122.09 0 L 96.05 0 L 96.05 -4.1 L 115.94 -35.91 L 96.56 -35.91 L 96.56 -40.19 L 121.75 -40.19 L 121.75 -36.08 Z M 134.86 -40.19 L 140.05 -40.19 L 140.05 0 L 134.86 0 L 134.86 -40.19 Z M 185.88 -40.19 L 185.88 0 L 180.69 0 L 159.83 -31.75 L 159.83 0 L 154.64 0 L 154.64 -40.19 L 159.83 -40.19 L 180.69 -8.38 L 180.69 -40.19 L 185.88 -40.19 Z M 200.47 -40.19 L 205.66 -40.19 L 205.66 0 L 200.47 0 L 200.47 -40.19 Z" stroke-linecap="round" />
</g>
</g>
</g>
<g transform="matrix(1.9211538461538462 0 0 1.9211538461538462 641.7059846153844 795.4259174319095)" id="tagline-cca530c1-af32-47bf-8e18-40195fad8209-logo"  >
<g style=""  paint-order="stroke"   >
		<g transform="matrix(1 0 0 1 5.684342e-14 0)" id="tagline-cca530c1-af32-47bf-8e18-40195fad8209-logo-path-0"  >
<path style="stroke: none; stroke-width: 0; stroke-dasharray: none; stroke-linecap: butt; stroke-dashoffset: 0; stroke-linejoin: miter; stroke-miterlimit: 4; fill: rgb(59,90,220); fill-rule: nonzero; opacity: 1;"  paint-order="stroke"  transform=" translate(-283.16999999999996, 11.315000000000001)" d="M 16.7 -22.56 L 19.65 -22.56 L 19.65 0 L 16.7 0 L 16.7 -10.43 L 5.25 -10.43 L 5.25 0 L 2.34 0 L 2.34 -22.56 L 5.25 -22.56 L 5.25 -12.8 L 16.7 -12.8 L 16.7 -22.56 Z M 37.6 -22.56 L 40.51 -22.56 L 40.51 0 L 37.6 0 L 37.6 -22.56 Z M 73.73 0 L 70.43 0 L 64.54 -9.22 L 61.38 -9.22 L 61.38 0 L 58.46 0 L 58.46 -22.56 L 65.89 -22.56 Q 69.73 -22.56 71.65 -20.72 Q 73.57 -18.88 73.57 -15.84 L 73.57 -15.84 Q 73.57 -13.09 72.03 -11.41 Q 70.5 -9.73 67.58 -9.31 L 67.58 -9.31 L 73.73 0 Z M 61.38 -20.03 L 61.38 -11.33 L 65.63 -11.33 Q 70.59 -11.33 70.59 -15.68 L 70.59 -15.68 Q 70.59 -20.03 65.63 -20.03 L 65.63 -20.03 L 61.38 -20.03 Z M 102.85 -20.19 L 93.31 -20.19 L 93.31 -12.48 L 101.89 -12.48 L 101.89 -10.24 L 93.31 -10.24 L 93.31 -2.37 L 102.85 -2.37 L 102.85 0 L 90.4 0 L 90.4 -22.56 L 102.85 -22.56 L 102.85 -20.19 Z M 141.06 -22.56 L 153.82 -22.56 L 153.82 -20.19 L 143.97 -20.19 L 143.97 -12.38 L 152.32 -12.38 L 152.32 -10.11 L 143.97 -10.11 L 143.97 0 L 141.06 0 L 141.06 -22.56 Z M 185.66 0 L 183.78 -5.22 L 173.86 -5.22 L 171.97 0 L 168.83 0 L 177.18 -22.14 L 180.48 -22.14 L 188.8 0 L 185.66 0 Z M 174.69 -7.49 L 182.94 -7.49 L 178.82 -18.88 L 174.69 -7.49 Z M 219.3 -5.86 Q 219.3 -4.26 218.53 -2.88 Q 217.76 -1.5 216.19 -0.64 Q 214.62 0.22 212.32 0.22 L 212.32 0.22 Q 210.08 0.22 208.34 -0.59 Q 206.59 -1.41 205.55 -2.83 Q 204.51 -4.26 204.35 -6.08 L 204.35 -6.08 L 207.46 -6.08 Q 207.55 -5.12 208.11 -4.21 Q 208.67 -3.3 209.71 -2.7 Q 210.75 -2.11 212.22 -2.11 L 212.22 -2.11 Q 214.14 -2.11 215.17 -3.14 Q 216.19 -4.16 216.19 -5.76 L 216.19 -5.76 Q 216.19 -7.14 215.47 -8 Q 214.75 -8.86 213.7 -9.36 Q 212.64 -9.86 210.82 -10.43 L 210.82 -10.43 Q 208.67 -11.14 207.38 -11.76 Q 206.08 -12.38 205.17 -13.63 Q 204.26 -14.88 204.26 -16.93 L 204.26 -16.93 Q 204.26 -18.69 205.1 -20.03 Q 205.95 -21.38 207.54 -22.11 Q 209.12 -22.85 211.26 -22.85 L 211.26 -22.85 Q 214.59 -22.85 216.54 -21.23 Q 218.5 -19.62 218.82 -17.12 L 218.82 -17.12 L 215.68 -17.12 Q 215.42 -18.46 214.3 -19.49 Q 213.18 -20.51 211.26 -20.51 L 211.26 -20.51 Q 209.5 -20.51 208.45 -19.6 Q 207.39 -18.69 207.39 -17.02 L 207.39 -17.02 Q 207.39 -15.71 208.08 -14.9 Q 208.77 -14.08 209.79 -13.62 Q 210.82 -13.15 212.61 -12.58 L 212.61 -12.58 Q 214.78 -11.87 216.11 -11.23 Q 217.44 -10.59 218.37 -9.3 Q 219.3 -8 219.3 -5.86 L 219.3 -5.86 Z M 234.66 -22.56 L 250.3 -22.56 L 250.3 -20.19 L 243.94 -20.19 L 243.94 0 L 241.02 0 L 241.02 -20.19 L 234.66 -20.19 L 234.66 -22.56 Z M 265.09 -3.42 L 268.61 -3.42 L 268.61 0 L 265.09 0 L 265.09 -3.42 Z M 299.58 -22.56 L 302.53 -22.56 L 302.53 0 L 299.58 0 L 299.58 -10.43 L 288.13 -10.43 L 288.13 0 L 285.22 0 L 285.22 -22.56 L 288.13 -22.56 L 288.13 -12.8 L 299.58 -12.8 L 299.58 -22.56 Z M 320.48 -22.56 L 323.39 -22.56 L 323.39 0 L 320.48 0 L 320.48 -22.56 Z M 356.61 0 L 353.31 0 L 347.42 -9.22 L 344.26 -9.22 L 344.26 0 L 341.34 0 L 341.34 -22.56 L 348.77 -22.56 Q 352.61 -22.56 354.53 -20.72 Q 356.45 -18.88 356.45 -15.84 L 356.45 -15.84 Q 356.45 -13.09 354.91 -11.41 Q 353.38 -9.73 350.46 -9.31 L 350.46 -9.31 L 356.61 0 Z M 344.26 -20.03 L 344.26 -11.33 L 348.51 -11.33 Q 353.47 -11.33 353.47 -15.68 L 353.47 -15.68 Q 353.47 -20.03 348.51 -20.03 L 348.51 -20.03 L 344.26 -20.03 Z M 385.73 -20.19 L 376.19 -20.19 L 376.19 -12.48 L 384.77 -12.48 L 384.77 -10.24 L 376.19 -10.24 L 376.19 -2.37 L 385.73 -2.37 L 385.73 0 L 373.28 0 L 373.28 -22.56 L 385.73 -22.56 L 385.73 -20.19 Z M 439.2 0 L 435.9 0 L 430.02 -9.22 L 426.85 -9.22 L 426.85 0 L 423.94 0 L 423.94 -22.56 L 431.36 -22.56 Q 435.2 -22.56 437.12 -20.72 Q 439.04 -18.88 439.04 -15.84 L 439.04 -15.84 Q 439.04 -13.09 437.5 -11.41 Q 435.97 -9.73 433.06 -9.31 L 433.06 -9.31 L 439.2 0 Z M 426.85 -20.03 L 426.85 -11.33 L 431.1 -11.33 Q 436.06 -11.33 436.06 -15.68 L 436.06 -15.68 Q 436.06 -20.03 431.1 -20.03 L 431.1 -20.03 L 426.85 -20.03 Z M 455.87 -22.56 L 458.78 -22.56 L 458.78 0 L 455.87 0 L 455.87 -22.56 Z M 486.98 -22.78 Q 490.91 -22.78 493.58 -20.83 Q 496.26 -18.88 497.18 -15.52 L 497.18 -15.52 L 494.11 -15.52 Q 493.31 -17.57 491.44 -18.82 Q 489.57 -20.06 487.01 -20.06 L 487.01 -20.06 Q 484.7 -20.06 482.88 -18.99 Q 481.06 -17.92 480.02 -15.94 Q 478.98 -13.95 478.98 -11.26 L 478.98 -11.26 Q 478.98 -8.51 480.03 -6.51 Q 481.09 -4.51 482.96 -3.44 Q 484.83 -2.37 487.26 -2.37 L 487.26 -2.37 Q 489.34 -2.37 491.07 -3.26 Q 492.8 -4.16 493.9 -5.87 Q 495.01 -7.58 495.23 -9.89 L 495.23 -9.89 L 486.37 -9.89 L 486.37 -12.06 L 497.7 -12.06 L 497.7 -9.38 Q 497.41 -6.69 496.03 -4.51 Q 494.66 -2.34 492.32 -1.06 Q 489.98 0.22 487.01 0.22 L 487.01 0.22 Q 483.74 0.22 481.25 -1.23 Q 478.75 -2.69 477.36 -5.3 Q 475.97 -7.9 475.97 -11.26 L 475.97 -11.26 Q 475.97 -14.62 477.36 -17.23 Q 478.75 -19.84 481.25 -21.31 Q 483.74 -22.78 486.98 -22.78 L 486.98 -22.78 Z M 529.28 -22.56 L 532.22 -22.56 L 532.22 0 L 529.28 0 L 529.28 -10.43 L 517.82 -10.43 L 517.82 0 L 514.91 0 L 514.91 -22.56 L 517.82 -22.56 L 517.82 -12.8 L 529.28 -12.8 L 529.28 -22.56 Z M 548.35 -22.56 L 564 -22.56 L 564 -20.19 L 557.63 -20.19 L 557.63 0 L 554.72 0 L 554.72 -20.19 L 548.35 -20.19 L 548.35 -22.56 Z" stroke-linecap="round" />
</g>
</g>
</g>
</svg>